# xmcd
#
# Track frame offsets: 
#        150
#        21985
#        34047
#        55815
#        70512
#        87432
#        127825
#        148927
#        163367
#        181157
#        195627
#        230435
#
# Disc length: 3183 seconds
#
# Revision: 3
# Processed by: cddbd v1.5.2PL0 Copyright (c) Steve Scherf et al.
# Submitted via: ExactAudioCopy v1.0b6
#
DISCID=a20c6d0c
DTITLE=Various Artist - The Best Of The Blues Singers
DYEAR=1989
DGENRE=Blues
TTITLE0=Joe Williams - Going To Chicago
TTITLE1=Joe Williams - Early In The Morning
TTITLE2=Ray Charles - Georgia On My Mind
TTITLE3=Little Jr. Parker - The Outside Man
TTITLE4=Little Jr. Parker - Taxman
TTITLE5=Muddy Waters - Kansas City
TTITLE6=Muddy Waters - Luther's Blues
TTITLE7=Muddy waters - I've Got My Mojo Working
TTITLE8=T-Bone Walker and Muddy Waters - Come Baby
TTITLE9=Joe Turner - Flip Flop and Fly
TTITLE10=Memphis Slim - Medley: Nervous, Summertime
TTITLE11=Memphis Slim - Baby Please Come Home
EXTD=YEAR: 1989
EXTT0=
EXTT1=
EXTT2=
EXTT3=
EXTT4=
EXTT5=
EXTT6=
EXTT7=
EXTT8=
EXTT9=
EXTT10=
EXTT11=
PLAYORDER=
